<mxfile host="app.diagrams.net" modified="2021-10-13T07:50:59.886Z" agent="5.0 (Windows)" etag="C6lkt_SWIQEMOLUvvwSU" version="15.4.3" type="github">
  <diagram id="UJKfh6a9Z_k5AnostWz-" name="Page-1">
    <mxGraphModel dx="868" dy="397" grid="1" gridSize="10" guides="1" tooltips="1" connect="1" arrows="1" fold="1" page="1" pageScale="1" pageWidth="827" pageHeight="1169" math="0" shadow="0">
      <root>
        <mxCell id="0" />
        <mxCell id="1" parent="0" />
        <mxCell id="tkdUUFAdbSwglJtOKysg-12" style="edgeStyle=none;rounded=0;orthogonalLoop=1;jettySize=auto;html=1;" edge="1" parent="1" source="tkdUUFAdbSwglJtOKysg-1">
          <mxGeometry relative="1" as="geometry">
            <mxPoint x="340" y="140" as="targetPoint" />
          </mxGeometry>
        </mxCell>
        <mxCell id="tkdUUFAdbSwglJtOKysg-1" value="Inicio" style="ellipse;whiteSpace=wrap;html=1;" vertex="1" parent="1">
          <mxGeometry x="280" y="30" width="120" height="60" as="geometry" />
        </mxCell>
        <mxCell id="tkdUUFAdbSwglJtOKysg-14" style="edgeStyle=none;rounded=0;orthogonalLoop=1;jettySize=auto;html=1;" edge="1" parent="1" source="tkdUUFAdbSwglJtOKysg-13">
          <mxGeometry relative="1" as="geometry">
            <mxPoint x="340" y="250" as="targetPoint" />
          </mxGeometry>
        </mxCell>
        <mxCell id="tkdUUFAdbSwglJtOKysg-13" value="&lt;div&gt;suma = 0&lt;/div&gt;&lt;div&gt;i = 0&lt;/div&gt;&lt;div&gt;num = 0&lt;br&gt;&lt;/div&gt;" style="rounded=0;whiteSpace=wrap;html=1;" vertex="1" parent="1">
          <mxGeometry x="280" y="140" width="120" height="60" as="geometry" />
        </mxCell>
        <mxCell id="tkdUUFAdbSwglJtOKysg-16" style="edgeStyle=none;rounded=0;orthogonalLoop=1;jettySize=auto;html=1;" edge="1" parent="1" source="tkdUUFAdbSwglJtOKysg-15" target="tkdUUFAdbSwglJtOKysg-17">
          <mxGeometry relative="1" as="geometry">
            <mxPoint x="340" y="350" as="targetPoint" />
          </mxGeometry>
        </mxCell>
        <mxCell id="tkdUUFAdbSwglJtOKysg-15" value="&quot;Introduce el numero: &quot;" style="shape=display;whiteSpace=wrap;html=1;" vertex="1" parent="1">
          <mxGeometry x="260" y="250" width="160" height="60" as="geometry" />
        </mxCell>
        <mxCell id="tkdUUFAdbSwglJtOKysg-18" style="edgeStyle=none;rounded=0;orthogonalLoop=1;jettySize=auto;html=1;" edge="1" parent="1" source="tkdUUFAdbSwglJtOKysg-17">
          <mxGeometry relative="1" as="geometry">
            <mxPoint x="340" y="440" as="targetPoint" />
          </mxGeometry>
        </mxCell>
        <mxCell id="tkdUUFAdbSwglJtOKysg-17" value="num" style="shape=parallelogram;perimeter=parallelogramPerimeter;whiteSpace=wrap;html=1;fixedSize=1;" vertex="1" parent="1">
          <mxGeometry x="280" y="340" width="120" height="60" as="geometry" />
        </mxCell>
        <mxCell id="tkdUUFAdbSwglJtOKysg-20" style="edgeStyle=none;rounded=0;orthogonalLoop=1;jettySize=auto;html=1;entryX=0;entryY=0.5;entryDx=0;entryDy=0;" edge="1" parent="1" source="tkdUUFAdbSwglJtOKysg-19" target="tkdUUFAdbSwglJtOKysg-21">
          <mxGeometry relative="1" as="geometry">
            <mxPoint x="440" y="465" as="targetPoint" />
          </mxGeometry>
        </mxCell>
        <mxCell id="tkdUUFAdbSwglJtOKysg-19" value="&lt;div align=&quot;center&quot;&gt;suma = suma + num&lt;/div&gt;&lt;div align=&quot;center&quot;&gt;i = i + 1&lt;br&gt;&lt;/div&gt;" style="rounded=0;whiteSpace=wrap;html=1;" vertex="1" parent="1">
          <mxGeometry x="280" y="440" width="120" height="50" as="geometry" />
        </mxCell>
        <mxCell id="tkdUUFAdbSwglJtOKysg-22" style="edgeStyle=none;rounded=0;orthogonalLoop=1;jettySize=auto;html=1;" edge="1" parent="1" source="tkdUUFAdbSwglJtOKysg-21">
          <mxGeometry relative="1" as="geometry">
            <mxPoint x="340" y="220" as="targetPoint" />
          </mxGeometry>
        </mxCell>
        <mxCell id="tkdUUFAdbSwglJtOKysg-24" style="edgeStyle=none;rounded=0;orthogonalLoop=1;jettySize=auto;html=1;" edge="1" parent="1" source="tkdUUFAdbSwglJtOKysg-21">
          <mxGeometry relative="1" as="geometry">
            <mxPoint x="610" y="465" as="targetPoint" />
          </mxGeometry>
        </mxCell>
        <mxCell id="tkdUUFAdbSwglJtOKysg-21" value="i&amp;lt;10" style="rhombus;whiteSpace=wrap;html=1;align=center;" vertex="1" parent="1">
          <mxGeometry x="490" y="425" width="80" height="80" as="geometry" />
        </mxCell>
        <mxCell id="tkdUUFAdbSwglJtOKysg-23" value="no" style="text;html=1;align=center;verticalAlign=middle;resizable=0;points=[];autosize=1;strokeColor=none;fillColor=none;" vertex="1" parent="1">
          <mxGeometry x="455" y="390" width="30" height="20" as="geometry" />
        </mxCell>
        <mxCell id="tkdUUFAdbSwglJtOKysg-26" style="edgeStyle=none;rounded=0;orthogonalLoop=1;jettySize=auto;html=1;" edge="1" parent="1" source="tkdUUFAdbSwglJtOKysg-25">
          <mxGeometry relative="1" as="geometry">
            <mxPoint x="690" y="370" as="targetPoint" />
          </mxGeometry>
        </mxCell>
        <mxCell id="tkdUUFAdbSwglJtOKysg-25" value="&quot;La suma es: &quot; suma" style="shape=display;whiteSpace=wrap;html=1;" vertex="1" parent="1">
          <mxGeometry x="610" y="435" width="160" height="60" as="geometry" />
        </mxCell>
        <mxCell id="tkdUUFAdbSwglJtOKysg-27" value="Fin" style="ellipse;whiteSpace=wrap;html=1;align=center;" vertex="1" parent="1">
          <mxGeometry x="630" y="310" width="120" height="60" as="geometry" />
        </mxCell>
      </root>
    </mxGraphModel>
  </diagram>
</mxfile>
